# xmcd
#
# Track frame offsets:
#	150
#	14235
#	28115
#	44265
#	62042
#	76922
#	86902
#	100307
#	116567
#	129292
#	145700
#	163532
#
# Disc length: 2351 seconds
#
# Revision: 0
# Processed by: cddbd v1.4PL0 Copyright (c) Steve Scherf et al.
# Submitted via: audiograbber 1.81.01
#
DISCID=9d092d0c
DTITLE=Raou Casadei - I Grandi Successi Originali cd1
DYEAR=1900
DGENRE=pop
TTITLE0=Appassiuneda
TTITLE1=Ciao mare
TTITLE2=Il rè del liscio
TTITLE3=Amico sole
TTITLE4=Giramondo
TTITLE5=Il liscio 70
TTITLE6=Concerto popolare
TTITLE7=Il passatore
TTITLE8=Il valzer dell'amicizia
TTITLE9=L'autostrada
TTITLE10=La canta
TTITLE11=La marcialonga
EXTD=
EXTT0=
EXTT1=
EXTT2=
EXTT3=
EXTT4=
EXTT5=
EXTT6=
EXTT7=
EXTT8=
EXTT9=
EXTT10=
EXTT11=
PLAYORDER=
